<?xml version="1.0" ?><svg enable-background="new 0 0 52 52" id="Layer_1" version="1.1" viewBox="0 0 52 52" xml:space="preserve" xmlns="http://www.w3.org/2000/svg" xmlns:xlink="http://www.w3.org/1999/xlink"><g><g><path d="M49.0001183,50h-46c-0.328125,0-0.6347656-0.1611328-0.8222656-0.4306641    c-0.1865234-0.2695313-0.2294922-0.6132813-0.1142578-0.9208984l14.999999-40C17.2100792,8.2587891,17.5831261,8,18.0001183,8    s0.7900391,0.2587891,0.9365234,0.6484375l10.2226563,27.2617188l6.9121094-17.28125    C36.2237511,18.2490234,36.5909386,18,37.0001183,18s0.7763672,0.2490234,0.9287109,0.6289063l12,30    c0.1230469,0.3076172,0.0849609,0.6572266-0.1005859,0.9316406C49.6417198,49.8349609,49.3321495,50,49.0001183,50z M4.4434786,48    h43.0800781L37.0001183,21.6923828l-6.9423828,17.3564453c-0.1533203,0.3837891-0.5527344,0.6777344-0.9394531,0.6289063    c-0.4130859-0.0048828-0.7802734-0.2626953-0.9257813-0.6484375L18.0001183,11.8476563L4.4434786,48z"/></g><g><rect height="2" width="9.4863281" x="13.0137911" y="20"/></g><g><rect height="2" width="9.4863281" x="32.0001183" y="29"/></g><g><path d="M44.5889854,14H33.4112511c-2.4326172,0-4.4111328-1.828125-4.4111328-4.0761719s1.9785156-4.0771484,4.4111328-4.0771484    h0.2568359C34.0157433,3.6767578,36.1739464,2,38.7755089,2c2.6025391,0,4.7607422,1.6767578,5.1083984,3.8466797h0.7050781    c2.4326172,0,4.4111328,1.8291016,4.4111328,4.0771484S47.0216026,14,44.5889854,14z M33.4112511,7.8466797    c-1.3291016,0-2.4111328,0.9316406-2.4111328,2.0771484C31.0001183,11.0683594,32.0821495,12,33.4112511,12h11.1777344    c1.3291016,0,2.4111328-0.9316406,2.4111328-2.0761719c0-1.1455078-1.0820313-2.0771484-2.4111328-2.0771484h-1.703125    c-0.2890625,0-0.5634766-0.125-0.7539063-0.3427734c-0.1894531-0.2177734-0.2763672-0.5068359-0.2363281-0.7929688    l0.0205078-0.1357422c0.0058594-0.0390625,0.0146484-0.0761719,0.0166016-0.1152344    C41.9327354,5.1044922,40.5167198,4,38.7755089,4c-1.7402344,0-3.15625,1.1044922-3.15625,2.4619141    c0.0009766,0.0361328,0.0097656,0.0732422,0.015625,0.1103516l0.0214844,0.1455078    c0.0371094,0.2851563-0.0498047,0.5732422-0.2402344,0.7890625c-0.1894531,0.2158203-0.4628906,0.3398438-0.7509766,0.3398438    H33.4112511z"/></g></g></svg>